<svg width="46" height="45" viewBox="0 0 46 45" fill="none" xmlns="http://www.w3.org/2000/svg">
<rect x="0.0224609" width="45.3462" height="45" rx="22.5" fill="#3366FF"/>
<g filter="url(#filter0_d_1090_9760)">
<path d="M15.5556 24.8446L20.8217 19.6307L18.4729 17.2818C18.3434 17.1522 18.2554 16.9874 18.22 16.8081C18.1847 16.6288 18.2035 16.4431 18.2742 16.2744C18.3449 16.1058 18.4643 15.9618 18.6172 15.8607C18.7702 15.7595 18.9498 15.7058 19.1334 15.7062L27.7827 15.7277C28.0289 15.7284 28.2648 15.8263 28.4385 16C28.6122 16.1737 28.7094 16.4089 28.7089 16.6539L28.6874 25.2602C28.6869 25.4429 28.632 25.6214 28.5296 25.773C28.4272 25.9247 28.2819 26.0428 28.1121 26.1123C27.9422 26.1818 27.7555 26.1996 27.5755 26.1636C27.3954 26.1275 27.2302 26.0391 27.1007 25.9096L24.7518 23.5607L19.4857 28.7746C19.3111 28.9475 19.0746 29.0443 18.8283 29.0436C18.5821 29.043 18.3461 28.9451 18.1724 28.7714L15.5523 26.1513C15.3786 25.9776 15.2814 25.7423 15.282 25.4973C15.2826 25.2522 15.381 25.0174 15.5556 24.8446Z" fill="white"/>
</g>
<defs>
<filter id="filter0_d_1090_9760" x="11.2822" y="15.707" width="21.4268" height="21.3359" filterUnits="userSpaceOnUse" color-interpolation-filters="sRGB">
<feFlood flood-opacity="0" result="BackgroundImageFix"/>
<feColorMatrix in="SourceAlpha" type="matrix" values="0 0 0 0 0 0 0 0 0 0 0 0 0 0 0 0 0 0 127 0" result="hardAlpha"/>
<feOffset dy="4"/>
<feGaussianBlur stdDeviation="2"/>
<feComposite in2="hardAlpha" operator="out"/>
<feColorMatrix type="matrix" values="0 0 0 0 0 0 0 0 0 0 0 0 0 0 0 0 0 0 0.25 0"/>
<feBlend mode="normal" in2="BackgroundImageFix" result="effect1_dropShadow_1090_9760"/>
<feBlend mode="normal" in="SourceGraphic" in2="effect1_dropShadow_1090_9760" result="shape"/>
</filter>
</defs>
</svg>
