<svg width="22" height="20" viewBox="0 0 22 20" fill="none" xmlns="http://www.w3.org/2000/svg">
<path fill-rule="evenodd" clip-rule="evenodd" d="M11.8802 0.677407C12.3217 1.11073 12.5697 1.69811 12.5697 2.31053C12.5697 2.92296 12.3217 3.51034 11.8802 3.94366L5.69071 10.014L11.8833 16.0842C12.3126 16.5203 12.5499 17.1042 12.5443 17.7101C12.5386 18.3161 12.2904 18.8956 11.853 19.3239C11.4157 19.7522 10.8243 19.9949 10.2061 19.9999C9.58797 20.0049 8.99255 19.7717 8.54811 19.3505L0.689485 11.6471C0.247986 11.2138 0 10.6264 0 10.014C0 9.40153 0.247986 8.81415 0.689485 8.38083L8.54811 0.677407C8.76705 0.462652 9.02702 0.292291 9.31315 0.176058C9.59928 0.0598254 9.90598 0 10.2157 0C10.5254 0 10.8321 0.0598254 11.1183 0.176058C11.4044 0.292291 11.6644 0.462652 11.8833 0.677407H11.8802ZM21.3105 0.677407C21.752 1.11073 22 1.69811 22 2.31053C22 2.92296 21.752 3.51034 21.3105 3.94366L15.1211 10.014L21.3137 16.0842C21.7429 16.5203 21.9803 17.1042 21.9746 17.7101C21.9689 18.3161 21.7207 18.8956 21.2834 19.3239C20.8461 19.7522 20.2546 19.9949 19.6365 19.9999C19.0183 20.0049 18.4229 19.7717 17.9785 19.3505L10.1198 11.6471C9.67833 11.2138 9.43035 10.6264 9.43035 10.014C9.43035 9.40153 9.67833 8.81415 10.1198 8.38083L17.9785 0.677407C18.1974 0.462652 18.4574 0.292291 18.7435 0.176058C19.0296 0.0598254 19.3363 0 19.6461 0C19.9558 0 20.2625 0.0598254 20.5486 0.176058C20.8348 0.292291 21.0947 0.462652 21.3137 0.677407H21.3105Z" fill="black"/>
</svg>
