<svg width="46" height="45" viewBox="0 0 46 45" fill="none" xmlns="http://www.w3.org/2000/svg">
<rect x="0.0234375" width="45.3462" height="45" rx="22.5" fill="#2E3A59"/>
<g filter="url(#filter0_d_1090_10213)">
<path d="M15 19C15 18.4696 15.2123 17.9609 15.5903 17.5858C15.9683 17.2107 16.4809 17 17.0154 17H29.1077C29.6422 17 30.1548 17.2107 30.5328 17.5858C30.9107 17.9609 31.1231 18.4696 31.1231 19V27C31.1231 27.5304 30.9107 28.0391 30.5328 28.4142C30.1548 28.7893 29.6422 29 29.1077 29H17.0154C16.4809 29 15.9683 28.7893 15.5903 28.4142C15.2123 28.0391 15 27.5304 15 27V19ZM17.5192 20C17.3856 20 17.2574 20.0527 17.163 20.1464C17.0685 20.2402 17.0154 20.3674 17.0154 20.5V21.5C17.0154 21.6326 17.0685 21.7598 17.163 21.8536C17.2574 21.9473 17.3856 22 17.5192 22H19.5346C19.6682 22 19.7964 21.9473 19.8909 21.8536C19.9854 21.7598 20.0385 21.6326 20.0385 21.5V20.5C20.0385 20.3674 19.9854 20.2402 19.8909 20.1464C19.7964 20.0527 19.6682 20 19.5346 20H17.5192ZM17.5192 23C17.3856 23 17.2574 23.0527 17.163 23.1464C17.0685 23.2402 17.0154 23.3674 17.0154 23.5C17.0154 23.6326 17.0685 23.7598 17.163 23.8536C17.2574 23.9473 17.3856 24 17.5192 24H22.5577C22.6913 24 22.8195 23.9473 22.914 23.8536C23.0085 23.7598 23.0615 23.6326 23.0615 23.5C23.0615 23.3674 23.0085 23.2402 22.914 23.1464C22.8195 23.0527 22.6913 23 22.5577 23H17.5192ZM17.5192 25C17.3856 25 17.2574 25.0527 17.163 25.1464C17.0685 25.2402 17.0154 25.3674 17.0154 25.5C17.0154 25.6326 17.0685 25.7598 17.163 25.8536C17.2574 25.9473 17.3856 26 17.5192 26H18.5269C18.6606 26 18.7887 25.9473 18.8832 25.8536C18.9777 25.7598 19.0308 25.6326 19.0308 25.5C19.0308 25.3674 18.9777 25.2402 18.8832 25.1464C18.7887 25.0527 18.6606 25 18.5269 25H17.5192ZM20.5423 25C20.4087 25 20.2805 25.0527 20.186 25.1464C20.0915 25.2402 20.0385 25.3674 20.0385 25.5C20.0385 25.6326 20.0915 25.7598 20.186 25.8536C20.2805 25.9473 20.4087 26 20.5423 26H21.55C21.6836 26 21.8118 25.9473 21.9063 25.8536C22.0008 25.7598 22.0538 25.6326 22.0538 25.5C22.0538 25.3674 22.0008 25.2402 21.9063 25.1464C21.8118 25.0527 21.6836 25 21.55 25H20.5423ZM23.5654 25C23.4318 25 23.3036 25.0527 23.2091 25.1464C23.1146 25.2402 23.0615 25.3674 23.0615 25.5C23.0615 25.6326 23.1146 25.7598 23.2091 25.8536C23.3036 25.9473 23.4318 26 23.5654 26H24.5731C24.7067 26 24.8349 25.9473 24.9294 25.8536C25.0238 25.7598 25.0769 25.6326 25.0769 25.5C25.0769 25.3674 25.0238 25.2402 24.9294 25.1464C24.8349 25.0527 24.7067 25 24.5731 25H23.5654ZM26.5885 25C26.4548 25 26.3267 25.0527 26.2322 25.1464C26.1377 25.2402 26.0846 25.3674 26.0846 25.5C26.0846 25.6326 26.1377 25.7598 26.2322 25.8536C26.3267 25.9473 26.4548 26 26.5885 26H27.5962C27.7298 26 27.8579 25.9473 27.9524 25.8536C28.0469 25.7598 28.1 25.6326 28.1 25.5C28.1 25.3674 28.0469 25.2402 27.9524 25.1464C27.8579 25.0527 27.7298 25 27.5962 25H26.5885Z" fill="white"/>
</g>
<defs>
<filter id="filter0_d_1090_10213" x="11" y="17" width="24.123" height="20" filterUnits="userSpaceOnUse" color-interpolation-filters="sRGB">
<feFlood flood-opacity="0" result="BackgroundImageFix"/>
<feColorMatrix in="SourceAlpha" type="matrix" values="0 0 0 0 0 0 0 0 0 0 0 0 0 0 0 0 0 0 127 0" result="hardAlpha"/>
<feOffset dy="4"/>
<feGaussianBlur stdDeviation="2"/>
<feComposite in2="hardAlpha" operator="out"/>
<feColorMatrix type="matrix" values="0 0 0 0 0 0 0 0 0 0 0 0 0 0 0 0 0 0 0.25 0"/>
<feBlend mode="normal" in2="BackgroundImageFix" result="effect1_dropShadow_1090_10213"/>
<feBlend mode="normal" in="SourceGraphic" in2="effect1_dropShadow_1090_10213" result="shape"/>
</filter>
</defs>
</svg>
