<svg width="17" height="18" viewBox="0 0 17 18" fill="none" xmlns="http://www.w3.org/2000/svg">
<path d="M8.90808 8.97852C8.90808 8.76717 8.82994 8.56448 8.69085 8.41504C8.55175 8.2656 8.3631 8.18164 8.1664 8.18164C7.96969 8.18164 7.78104 8.2656 7.64195 8.41504C7.50286 8.56448 7.42471 8.76717 7.42471 8.97852C7.42471 9.18986 7.50286 9.39255 7.64195 9.54199C7.78104 9.69144 7.96969 9.77539 8.1664 9.77539C8.3631 9.77539 8.55175 9.69144 8.69085 9.54199C8.82994 9.39255 8.90808 9.18986 8.90808 8.97852ZM5.81773 8.97852C5.81773 8.76717 5.73959 8.56448 5.6005 8.41504C5.46141 8.2656 5.27276 8.18164 5.07605 8.18164C4.87934 8.18164 4.69069 8.2656 4.5516 8.41504C4.41251 8.56448 4.33437 8.76717 4.33437 8.97852C4.33437 9.18986 4.41251 9.39255 4.5516 9.54199C4.69069 9.69144 4.87934 9.77539 5.07605 9.77539C5.27276 9.77539 5.46141 9.69144 5.6005 9.54199C5.73959 9.39255 5.81773 9.18986 5.81773 8.97852ZM11.9984 8.97852C11.9984 8.76717 11.9203 8.56448 11.7812 8.41504C11.6421 8.2656 11.4535 8.18164 11.2567 8.18164C11.06 8.18164 10.8714 8.2656 10.7323 8.41504C10.5932 8.56448 10.5151 8.76717 10.5151 8.97852C10.5151 9.18986 10.5932 9.39255 10.7323 9.54199C10.8714 9.69144 11.06 9.77539 11.2567 9.77539C11.4535 9.77539 11.6421 9.69144 11.7812 9.54199C11.9203 9.39255 11.9984 9.18986 11.9984 8.97852ZM1.78174 11.8605C2.13095 12.7521 2.63158 13.5522 3.26974 14.2396C3.90343 14.9229 4.65571 15.466 5.48398 15.8383C6.33382 16.2218 7.2362 16.416 8.1664 16.416H8.1973C9.13368 16.411 10.0407 16.2118 10.8936 15.82C11.7148 15.444 12.46 14.8998 13.0878 14.218C13.7198 13.5323 14.2158 12.7354 14.5588 11.8473C14.9142 10.9275 15.0934 9.94971 15.0888 8.94365C15.0835 7.79072 14.8297 6.65479 14.3471 5.625V3.10156C14.3471 2.89903 14.2722 2.70478 14.1389 2.56157C14.0056 2.41835 13.8248 2.33789 13.6363 2.33789H11.2861C10.3276 1.81941 9.27038 1.54665 8.1973 1.54102H8.16485C7.23929 1.54102 6.34155 1.73359 5.49634 2.11045C4.67225 2.47826 3.92278 3.01509 3.28983 3.69092C2.65167 4.36992 2.14949 5.16348 1.79873 6.04834C1.43407 6.96475 1.24865 7.93926 1.24402 8.94531C1.23938 9.95635 1.42171 10.9375 1.78174 11.8605ZM4.1165 4.58906C5.19966 3.43692 6.63668 2.80274 8.1664 2.80274H8.19267C9.12441 2.80772 10.05 3.05674 10.8674 3.5249L10.9972 3.59961H13.1728V5.93711L13.2423 6.07656C13.678 6.95479 13.9098 7.94922 13.9144 8.95029C13.9206 10.6055 13.3319 12.1594 12.2518 13.3298C11.1733 14.5002 9.73166 15.1477 8.19112 15.1543H8.16485C7.39227 15.1543 6.64286 14.9933 5.93671 14.6745C5.24756 14.3641 4.62949 13.9175 4.09795 13.3464C3.56796 12.777 3.15076 12.1112 2.86181 11.3708C2.56205 10.6038 2.41217 9.79033 2.41526 8.95029C2.42453 7.29678 3.02869 5.74785 4.1165 4.58906Z" fill="#192A3E"/>
</svg>
