<svg width="29" height="27" viewBox="0 0 29 27" fill="none" xmlns="http://www.w3.org/2000/svg">
<ellipse cx="14.1211" cy="13.7867" rx="13.9258" ry="12.9088" fill="#AAB2C8"/>
<path fill-rule="evenodd" clip-rule="evenodd" d="M18.3763 12.9377C18.5638 13.1252 18.6691 13.3795 18.6691 13.6447C18.6691 13.9098 18.5638 14.1641 18.3763 14.3517L12.7193 20.0087C12.627 20.1042 12.5167 20.1804 12.3947 20.2328C12.2727 20.2852 12.1415 20.3128 12.0087 20.3139C11.8759 20.3151 11.7442 20.2898 11.6213 20.2395C11.4984 20.1892 11.3868 20.115 11.2929 20.0211C11.199 19.9272 11.1247 19.8155 11.0745 19.6926C11.0242 19.5697 10.9989 19.4381 11 19.3053C11.0012 19.1725 11.0288 19.0413 11.0812 18.9193C11.1336 18.7973 11.2098 18.6869 11.3053 18.5947L16.2553 13.6447L11.3053 8.69468C11.1231 8.50607 11.0223 8.25347 11.0246 7.99128C11.0269 7.72908 11.1321 7.47827 11.3175 7.29286C11.5029 7.10745 11.7537 7.00228 12.0159 7C12.2781 6.99772 12.5307 7.09852 12.7193 7.28068L18.3763 12.9377Z" fill="black"/>
</svg>
