<svg width="63" height="56" viewBox="0 0 63 56" fill="none" xmlns="http://www.w3.org/2000/svg">
<path d="M36.264 4.07248C33.7848 1.44624 30.322 0 26.5 0C22.6576 0 19.1834 1.43749 16.7157 4.04748C14.2212 6.68621 13.0058 10.2724 13.2911 14.1449C13.8568 21.7849 19.7822 27.9998 26.5 27.9998C33.2178 27.9998 39.133 21.7861 39.7076 14.1474C39.9968 10.3099 38.7737 6.73121 36.264 4.07248ZM48.9225 55.9997H4.07754C3.49056 56.0072 2.90926 55.8862 2.37593 55.6455C1.84261 55.4049 1.37067 55.0506 0.994451 54.6084C0.166349 53.6372 -0.16744 52.3109 0.0797169 50.9697C1.15498 45.1172 4.5107 40.201 9.78508 36.7498C14.4709 33.6861 20.4064 31.9998 26.5 31.9998C32.5936 31.9998 38.5291 33.6873 43.2149 36.7498C48.4893 40.1998 51.845 45.116 52.9203 50.9685C53.1674 52.3097 52.8336 53.6359 52.0055 54.6072C51.6295 55.0495 51.1576 55.4041 50.6242 55.6449C50.0909 55.8858 49.5095 56.007 48.9225 55.9997Z" fill="black"/>
<path d="M49.209 14.1098L49.209 14.1099C48.6497 21.5454 42.9021 27.4998 36.5 27.4998C30.0975 27.4998 24.3403 21.5438 23.7898 14.108C23.514 10.3647 24.6884 6.9198 27.079 4.39099C29.4452 1.88839 32.7844 0.5 36.5 0.5C40.1931 0.5 43.5214 1.89568 45.9004 4.41571C48.308 6.96621 49.4883 10.4043 49.209 14.1098ZM58.9287 55.4997L58.9287 55.4997H58.9225L14.0775 55.4996L14.0712 55.4997C13.557 55.5063 13.0481 55.4003 12.5816 55.1898C12.1151 54.9793 11.7032 54.6698 11.3753 54.2844L11.3749 54.284C10.6518 53.4359 10.3494 52.265 10.5714 51.0603L10.5715 51.0601C11.6204 45.3509 14.8913 40.5495 20.0588 37.1682C24.656 34.1624 30.4947 32.4998 36.5 32.4998C42.5053 32.4998 48.3441 34.1637 52.9414 37.1683C58.1087 40.5483 61.3796 45.3497 62.4285 51.0588L62.4286 51.0591C62.6506 52.2637 62.3482 53.4347 61.6251 54.2828L61.6246 54.2833C61.2968 54.6689 60.8849 54.9786 60.4184 55.1893C59.9519 55.4 59.443 55.5061 58.9287 55.4997Z" stroke="black"/>
</svg>
