<svg width="18" height="19" viewBox="0 0 18 19" fill="none" xmlns="http://www.w3.org/2000/svg">
<path d="M18 9.50244C17.9995 7.11564 17.0512 4.82673 15.3634 3.13901C13.6757 1.45128 11.3868 0.502919 9 0.502441V2.30244C10.4239 2.30277 11.8157 2.72511 12.9997 3.51612C14.1836 4.30714 15.1066 5.43132 15.6519 6.74664C16.0138 7.62033 16.2001 8.55676 16.2 9.50244H18ZM0 7.70244V3.20244C0 2.96375 0.0948211 2.73483 0.263604 2.56605C0.432387 2.39726 0.661305 2.30244 0.9 2.30244H5.4C5.63869 2.30244 5.86761 2.39726 6.0364 2.56605C6.20518 2.73483 6.3 2.96375 6.3 3.20244V6.80244C6.3 7.04114 6.20518 7.27005 6.0364 7.43884C5.86761 7.60762 5.63869 7.70244 5.4 7.70244H3.6C3.6 9.612 4.35857 11.4433 5.70883 12.7936C7.05909 14.1439 8.89044 14.9024 10.8 14.9024V13.1024C10.8 12.8637 10.8948 12.6348 11.0636 12.466C11.2324 12.2973 11.4613 12.2024 11.7 12.2024H15.3C15.5387 12.2024 15.7676 12.2973 15.9364 12.466C16.1052 12.6348 16.2 12.8637 16.2 13.1024V17.6024C16.2 17.8411 16.1052 18.0701 15.9364 18.2388C15.7676 18.4076 15.5387 18.5024 15.3 18.5024H10.8C4.8357 18.5024 0 13.6667 0 7.70244Z" fill="white"/>
</svg>
