<svg width="18" height="20" viewBox="0 0 18 20" fill="none" xmlns="http://www.w3.org/2000/svg">
<path fill-rule="evenodd" clip-rule="evenodd" d="M3.84854 1.94417C3.84854 1.70143 6.434 0 9.00114 0C11.5683 0 14.1537 1.70143 14.1537 1.94417C14.1537 2.81072 14.0587 3.32398 13.9786 3.60339C13.9253 3.7867 13.7484 3.88835 13.552 3.88835H4.45025C4.25388 3.88835 4.07697 3.7867 4.02373 3.60339C3.94358 3.32398 3.84854 2.81072 3.84854 1.94417ZM8.14238 1.66643C7.99054 1.66643 7.84492 1.72496 7.73755 1.82913C7.63018 1.9333 7.56987 2.07459 7.56987 2.22191C7.56987 2.36923 7.63018 2.51052 7.73755 2.6147C7.84492 2.71887 7.99054 2.77739 8.14238 2.77739H9.85991C10.0118 2.77739 10.1574 2.71887 10.2647 2.6147C10.3721 2.51052 10.4324 2.36923 10.4324 2.22191C10.4324 2.07459 10.3721 1.9333 10.2647 1.82913C10.1574 1.72496 10.0118 1.66643 9.85991 1.66643H8.14238ZM4.44281 7.34231C2.53634 6.77017 3.01725 5.74809 3.74434 4.9993H14.4171C14.9988 5.72031 15.3108 6.69296 13.5526 7.2751C13.5717 7.43989 13.5812 7.60709 13.5812 7.7767C13.581 8.37843 13.4548 8.97384 13.2103 9.52684C12.9658 10.0798 12.6081 10.5789 12.1589 10.9938C11.7096 11.4086 11.1783 11.7306 10.5969 11.9403C10.0156 12.1499 9.39647 12.2429 8.77703 12.2134C8.15759 12.184 7.55076 12.0328 6.99335 11.769C6.43593 11.5052 5.93954 11.1343 5.53426 10.6789C5.12899 10.2234 4.82327 9.69279 4.63566 9.11925C4.44804 8.54572 4.38243 7.94118 4.44281 7.34231ZM8.84542 7.7767C10.358 7.7767 11.5305 7.69893 12.4293 7.56339C12.4339 7.63375 12.4362 7.70485 12.4362 7.7767C12.4358 8.22149 12.3436 8.66171 12.1652 9.07141C11.9867 9.4811 11.7254 9.85199 11.3969 10.1622C11.0684 10.4724 10.6792 10.7157 10.2522 10.8777C9.82527 11.0397 9.36922 11.1171 8.91095 11.1055C8.45267 11.0938 8.00144 10.9932 7.58384 10.8097C7.16625 10.6262 6.79074 10.3634 6.47944 10.0369C6.16815 9.71036 5.92737 9.32668 5.77129 8.90845C5.61521 8.49023 5.54699 8.04592 5.57065 7.60172C6.40824 7.71393 7.4817 7.7767 8.84542 7.7767ZM13.82 15.8867C13.3022 15.1027 12.5894 14.4578 11.7473 14.0112C10.9052 13.5647 9.96081 13.3309 9.00114 13.3315C8.04108 13.3308 7.09628 13.5646 6.25383 14.0113C5.41138 14.4581 4.6984 15.1034 4.1806 15.8878C3.98799 15.6009 3.69297 15.3932 3.35217 15.3045L2.24608 15.0174C1.87946 14.922 1.48882 14.9718 1.16007 15.1559C0.831322 15.34 0.591391 15.6432 0.49305 15.9989L0.0487805 17.6087C0.000123906 17.7848 -0.0122907 17.9686 0.0122456 18.1494C0.036782 18.3302 0.097789 18.5046 0.191782 18.6625C0.285776 18.8205 0.410914 18.9589 0.560052 19.0699C0.70919 19.1809 0.879407 19.2623 1.06098 19.3095L2.1665 19.5973C2.35248 19.6456 2.54661 19.6571 2.73725 19.6309C2.9279 19.6047 3.11115 19.5415 3.27603 19.4451C3.27648 19.5924 3.33724 19.7335 3.44493 19.8374C3.55262 19.9412 3.69842 19.9993 3.85026 19.9989C4.0021 19.9984 4.14754 19.9395 4.25458 19.835C4.36163 19.7305 4.42151 19.5891 4.42105 19.4417V18.8863C4.42105 18.6744 4.43594 18.4665 4.46571 18.2625L7.44506 19.0373C7.58335 19.3246 7.80322 19.5675 8.07884 19.7378C8.35447 19.908 8.67442 19.9984 9.00114 19.9984C9.32787 19.9984 9.64782 19.908 9.92345 19.7378C10.1991 19.5675 10.4189 19.3246 10.5572 19.0373L13.5366 18.2625C13.566 18.4665 13.5809 18.6744 13.5812 18.8863V19.4417C13.5805 19.5891 13.6401 19.7306 13.7469 19.8353C13.8537 19.94 13.999 19.9993 14.1509 20C14.3027 20.0007 14.4486 19.9429 14.5566 19.8393C14.6645 19.7356 14.7255 19.5946 14.7263 19.4473C15.0469 19.6339 15.443 19.6989 15.8329 19.5973L16.939 19.3101C17.1206 19.2629 17.2908 19.1815 17.4399 19.0705C17.5891 18.9594 17.7142 18.821 17.8082 18.6631C17.9022 18.5051 17.9632 18.3308 17.9878 18.1499C18.0123 17.9691 17.9999 17.7854 17.9512 17.6092L17.5064 15.9994C17.408 15.6437 17.1681 15.3405 16.8394 15.1564C16.5106 14.9724 16.12 14.9225 15.7533 15.0179L14.6473 15.3051C14.3072 15.3935 14.0127 15.6009 13.82 15.8867ZM4.76628 17.1898C5.07572 16.4643 5.57754 15.8311 6.22077 15.3547C6.864 14.8782 7.62574 14.5753 8.42863 14.4769V16.7593C8.1719 16.8474 7.94041 16.9933 7.75327 17.1852C7.56613 17.3772 7.4287 17.6095 7.35231 17.8631L4.76628 17.1898ZM13.236 17.1898C12.9266 16.4643 12.4248 15.8311 11.7815 15.3547C11.1383 14.8782 10.3765 14.5753 9.57366 14.4769V16.7593C10.0912 16.9371 10.4954 17.3481 10.65 17.8631L13.236 17.1898ZM9.00114 18.8863C9.15298 18.8863 9.2986 18.8277 9.40597 18.7236C9.51334 18.6194 9.57366 18.4781 9.57366 18.3308C9.57366 18.1835 9.51334 18.0422 9.40597 17.938C9.2986 17.8338 9.15298 17.7753 9.00114 17.7753C8.84931 17.7753 8.70368 17.8338 8.59632 17.938C8.48895 18.0422 8.42863 18.1835 8.42863 18.3308C8.42863 18.4781 8.48895 18.6194 8.59632 18.7236C8.70368 18.8277 8.84931 18.8863 9.00114 18.8863Z" fill="white"/>
</svg>
