<svg width="20" height="20" viewBox="0 0 20 20" fill="none" xmlns="http://www.w3.org/2000/svg">
<path d="M8.99949 1.22363H7.22182C2.77766 1.22363 1 3.0013 1 7.44546V12.7784C1 17.2226 2.77766 19.0003 7.22182 19.0003H12.5548C16.999 19.0003 18.7766 17.2226 18.7766 12.7784V11.0008" stroke="white" stroke-linecap="round" stroke-linejoin="round"/>
<path d="M13.4788 2.12991L6.47484 9.1339C6.20819 9.40055 5.94154 9.92496 5.88821 10.3072L5.50602 12.9825C5.3638 13.9514 6.0482 14.6269 7.01703 14.4936L9.69241 14.1114C10.0657 14.058 10.5901 13.7914 10.8657 13.5247L17.8697 6.52074C19.0785 5.31193 19.6473 3.90757 17.8697 2.12991C16.092 0.352245 14.6876 0.921098 13.4788 2.12991Z" stroke="white" stroke-miterlimit="10" stroke-linecap="round" stroke-linejoin="round"/>
<path d="M12.4746 3.13379C13.0701 5.2581 14.7322 6.92021 16.8654 7.52462" stroke="white" stroke-miterlimit="10" stroke-linecap="round" stroke-linejoin="round"/>
</svg>
