<svg width="46" height="45" viewBox="0 0 46 45" fill="none" xmlns="http://www.w3.org/2000/svg">
<rect x="0.0234375" width="45.3462" height="45" rx="22.5" fill="#FF333F"/>
<g filter="url(#filter0_d_1090_9762)">
<path d="M30.4063 19.6614L24.7058 24.3965L26.841 26.9412C26.9587 27.0815 27.032 27.2534 27.0516 27.4351C27.0712 27.6168 27.0362 27.8002 26.9511 27.962C26.8659 28.1238 26.7345 28.2569 26.5733 28.3443C26.4121 28.4317 26.2285 28.4696 26.0456 28.4532L17.4312 27.6779C17.1859 27.6558 16.9594 27.5377 16.8016 27.3495C16.6437 27.1613 16.5673 26.9185 16.5892 26.6745L17.3607 18.1029C17.3771 17.9209 17.4473 17.7479 17.5626 17.6057C17.6778 17.4636 17.8329 17.3586 18.0081 17.3042C18.1833 17.2497 18.3709 17.2482 18.5471 17.2999C18.7233 17.3515 18.8802 17.4539 18.998 17.5942L21.1332 20.1389L26.8337 15.4038C27.0227 15.2468 27.2667 15.171 27.512 15.1931C27.7573 15.2152 27.9838 15.3333 28.1417 15.5215L30.5234 18.3599C30.6813 18.5481 30.7577 18.791 30.7358 19.0351C30.7138 19.2791 30.5953 19.5044 30.4063 19.6614Z" fill="white"/>
</g>
<defs>
<filter id="filter0_d_1090_9762" x="12.5859" y="15.1895" width="22.1533" height="21.2676" filterUnits="userSpaceOnUse" color-interpolation-filters="sRGB">
<feFlood flood-opacity="0" result="BackgroundImageFix"/>
<feColorMatrix in="SourceAlpha" type="matrix" values="0 0 0 0 0 0 0 0 0 0 0 0 0 0 0 0 0 0 127 0" result="hardAlpha"/>
<feOffset dy="4"/>
<feGaussianBlur stdDeviation="2"/>
<feComposite in2="hardAlpha" operator="out"/>
<feColorMatrix type="matrix" values="0 0 0 0 0 0 0 0 0 0 0 0 0 0 0 0 0 0 0.25 0"/>
<feBlend mode="normal" in2="BackgroundImageFix" result="effect1_dropShadow_1090_9762"/>
<feBlend mode="normal" in="SourceGraphic" in2="effect1_dropShadow_1090_9762" result="shape"/>
</filter>
</defs>
</svg>
