<svg width="58" height="53" viewBox="0 0 58 53" fill="none" xmlns="http://www.w3.org/2000/svg">
<ellipse cx="28.7023" cy="26.5056" rx="28.3673" ry="25.8176" fill="#5F66E9"/>
<path fill-rule="evenodd" clip-rule="evenodd" d="M26.4052 15.0417C26.9092 14.8906 27.4414 14.8593 27.9595 14.9504C28.4777 15.0415 28.9673 15.2525 29.3894 15.5665C29.8115 15.8805 30.1544 16.2889 30.3906 16.7589C30.6268 17.229 30.7499 17.7478 30.75 18.2739V34.7259C30.7499 35.2519 30.6268 35.7707 30.3906 36.2408C30.1544 36.7109 29.8115 37.1192 29.3894 37.4332C28.9673 37.7472 28.4777 37.9582 27.9595 38.0493C27.4414 38.1404 26.9092 38.1091 26.4052 37.958L19.6553 35.933C18.9601 35.7245 18.3507 35.2974 17.9174 34.7152C17.4842 34.133 17.2501 33.4266 17.25 32.7009V20.2989C17.2501 19.5731 17.4842 18.8667 17.9174 18.2845C18.3507 17.7023 18.9601 17.2753 19.6553 17.0667L26.4052 15.0417ZM31.875 17.4999C31.875 17.2015 31.9935 16.9153 32.2045 16.7044C32.4155 16.4934 32.7016 16.3749 33 16.3749H36.375C37.2701 16.3749 38.1286 16.7304 38.7615 17.3634C39.3944 17.9963 39.75 18.8548 39.75 19.7499V20.8749C39.75 21.1732 39.6315 21.4594 39.4205 21.6704C39.2095 21.8813 38.9234 21.9999 38.625 21.9999C38.3266 21.9999 38.0405 21.8813 37.8295 21.6704C37.6185 21.4594 37.5 21.1732 37.5 20.8749V19.7499C37.5 19.4515 37.3815 19.1653 37.1705 18.9544C36.9595 18.7434 36.6734 18.6249 36.375 18.6249H33C32.7016 18.6249 32.4155 18.5063 32.2045 18.2954C31.9935 18.0844 31.875 17.7982 31.875 17.4999ZM38.625 30.9999C38.9234 30.9999 39.2095 31.1184 39.4205 31.3294C39.6315 31.5403 39.75 31.8265 39.75 32.1249V33.2499C39.75 34.145 39.3944 35.0034 38.7615 35.6363C38.1286 36.2693 37.2701 36.6249 36.375 36.6249H33C32.7016 36.6249 32.4155 36.5063 32.2045 36.2954C31.9935 36.0844 31.875 35.7982 31.875 35.4999C31.875 35.2015 31.9935 34.9153 32.2045 34.7044C32.4155 34.4934 32.7016 34.3749 33 34.3749H36.375C36.6734 34.3749 36.9595 34.2563 37.1705 34.0454C37.3815 33.8344 37.5 33.5482 37.5 33.2499V32.1249C37.5 31.8265 37.6185 31.5403 37.8295 31.3294C38.0405 31.1184 38.3266 30.9999 38.625 30.9999ZM25.125 25.3749C24.8266 25.3749 24.5405 25.4934 24.3295 25.7044C24.1185 25.9153 24 26.2015 24 26.4999C24 26.7982 24.1185 27.0844 24.3295 27.2954C24.5405 27.5063 24.8266 27.6249 25.125 27.6249H25.1261C25.4245 27.6249 25.7106 27.5063 25.9216 27.2954C26.1326 27.0844 26.2511 26.7982 26.2511 26.4999C26.2511 26.2015 26.1326 25.9153 25.9216 25.7044C25.7106 25.4934 25.4245 25.3749 25.1261 25.3749H25.125Z" fill="#292D32"/>
<path d="M38.625 26.5L36.375 28.75M33 26.5H38.625H33ZM38.625 26.5L36.375 24.25L38.625 26.5Z" stroke="#292D32" stroke-width="3.33333" stroke-linecap="round" stroke-linejoin="round"/>
</svg>
