<svg width="50" height="58" viewBox="0 0 50 58" fill="none" xmlns="http://www.w3.org/2000/svg">
<path fill-rule="evenodd" clip-rule="evenodd" d="M10.6904 5.6381C10.6904 4.93415 17.8722 0 25.0032 0C32.1341 0 39.316 4.93415 39.316 5.6381C39.316 8.15109 39.052 9.63955 38.8293 10.4498C38.6814 10.9814 38.19 11.2762 37.6446 11.2762H12.3618C11.8163 11.2762 11.3249 10.9814 11.177 10.4498C10.9544 9.63955 10.6904 8.15109 10.6904 5.6381ZM22.6177 4.83266C22.1959 4.83266 21.7914 5.00238 21.4932 5.30448C21.195 5.60658 21.0274 6.01631 21.0274 6.44355C21.0274 6.87078 21.195 7.28052 21.4932 7.58262C21.7914 7.88472 22.1959 8.05443 22.6177 8.05443H27.3886C27.8104 8.05443 28.2149 7.88472 28.5132 7.58262C28.8114 7.28052 28.979 6.87078 28.979 6.44355C28.979 6.01631 28.8114 5.60658 28.5132 5.30448C28.2149 5.00238 27.8104 4.83266 27.3886 4.83266H22.6177ZM12.3411 21.2927C7.0454 19.6335 8.38126 16.6695 10.401 14.498H40.0475C41.6633 16.5889 42.53 19.4096 37.6461 21.0978C37.6992 21.5757 37.7257 22.0606 37.7257 22.5524C37.725 24.2974 37.3744 26.0241 36.6953 27.6278C36.0161 29.2315 35.0225 30.6788 33.7746 31.8819C32.5268 33.085 31.0507 34.0188 29.436 34.6268C27.8212 35.2348 26.1013 35.5043 24.3806 35.4189C22.66 35.3335 20.9743 34.8951 19.426 34.1301C17.8776 33.3651 16.4987 32.2896 15.3729 30.9687C14.2472 29.6478 13.398 28.1091 12.8768 26.4458C12.3557 24.7826 12.1734 23.0294 12.3411 21.2927ZM24.5706 22.5524C28.7722 22.5524 32.0292 22.3269 34.526 21.9338C34.5387 22.1379 34.545 22.3441 34.545 22.5524C34.5439 23.8423 34.2879 25.119 33.7921 26.3071C33.2963 27.4952 32.5707 28.5708 31.6581 29.4704C30.7455 30.37 29.6644 31.0756 28.4784 31.5453C27.2924 32.0151 26.0256 32.2397 24.7526 32.2058C23.4796 32.172 22.2262 31.8803 21.0662 31.3481C19.9062 30.8159 18.8632 30.0539 17.9985 29.107C17.1337 28.16 16.4649 27.0474 16.0314 25.8345C15.5978 24.6217 15.4083 23.3332 15.474 22.045C17.8007 22.3704 20.7825 22.5524 24.5706 22.5524ZM38.3888 46.0714C36.9505 43.7979 34.9706 41.9275 32.6314 40.6326C30.2922 39.3376 27.6689 38.6597 25.0032 38.6613C22.3363 38.6592 19.7119 39.3373 17.3717 40.6328C15.0316 41.9284 13.0511 43.7998 11.6128 46.0746C11.0778 45.2427 10.2583 44.6404 9.31159 44.3832L6.23911 43.5503C5.22074 43.2738 4.13562 43.4183 3.22242 43.9521C2.30923 44.4859 1.64275 45.3652 1.36958 46.3968L0.135501 51.0651C0.000344182 51.576 -0.0341409 52.1088 0.0340156 52.6332C0.102172 53.1576 0.271636 53.6632 0.532729 54.1213C0.793821 54.5793 1.14143 54.9808 1.5557 55.3027C1.96997 55.6247 2.4428 55.8608 2.94717 55.9977L6.01806 56.8321C6.53468 56.9723 7.07391 57.0055 7.60349 56.9296C8.13306 56.8538 8.64208 56.6705 9.10008 56.3907C9.10135 56.8179 9.27011 57.2272 9.56924 57.5284C9.86838 57.8295 10.2734 57.998 10.6952 57.9968C11.1169 57.9955 11.5209 57.8245 11.8183 57.5215C12.1156 57.2185 12.282 56.8083 12.2807 56.381V54.7702C12.2807 54.1559 12.322 53.5529 12.4047 52.9611L20.6807 55.2083C21.0649 56.0412 21.6756 56.7459 22.4412 57.2395C23.2069 57.7332 24.0956 57.9954 25.0032 57.9954C25.9108 57.9954 26.7995 57.7332 27.5651 57.2395C28.3308 56.7459 28.9415 56.0412 29.3256 55.2083L37.6016 52.9611C37.6833 53.5529 37.7246 54.1559 37.7257 54.7702V56.381C37.7236 56.8083 37.8891 57.2189 38.1858 57.5225C38.4826 57.8261 38.8862 57.9978 39.308 58C39.7298 58.0021 40.1351 57.8344 40.4349 57.5339C40.7346 57.2333 40.9042 56.8244 40.9063 56.3971C41.7969 56.9384 42.8973 57.1269 43.9803 56.8321L47.0528 55.9993C47.5572 55.8624 48.03 55.6263 48.4443 55.3043C48.8586 54.9824 49.2062 54.5809 49.4673 54.1229C49.7284 53.6649 49.8978 53.1592 49.966 52.6348C50.0341 52.1104 49.9997 51.5776 49.8645 51.0667L48.6288 46.3984C48.3557 45.3669 47.6892 44.4875 46.776 43.9537C45.8628 43.4199 44.7777 43.2754 43.7593 43.5519L40.6868 44.3848C39.7423 44.6411 38.9242 45.2426 38.3888 46.0714ZM13.2397 49.8505C14.0992 47.7465 15.4932 45.9103 17.2799 44.5285C19.0667 43.1467 21.1826 42.2684 23.4129 41.9829V48.6021C22.6997 48.8573 22.0567 49.2807 21.5369 49.8372C21.017 50.3938 20.6353 51.0675 20.4231 51.8029L13.2397 49.8505ZM36.7667 49.8505C35.9071 47.7465 34.5132 45.9103 32.7264 44.5285C30.9397 43.1467 28.8237 42.2684 26.5935 41.9829V48.6021C28.0311 49.1176 29.1539 50.3096 29.5833 51.8029L36.7667 49.8505ZM25.0032 54.7702C25.425 54.7702 25.8295 54.6004 26.1277 54.2983C26.4259 53.9962 26.5935 53.5865 26.5935 53.1593C26.5935 52.732 26.4259 52.3223 26.1277 52.0202C25.8295 51.7181 25.425 51.5484 25.0032 51.5484C24.5814 51.5484 24.1769 51.7181 23.8787 52.0202C23.5804 52.3223 23.4129 52.732 23.4129 53.1593C23.4129 53.5865 23.5804 53.9962 23.8787 54.2983C24.1769 54.6004 24.5814 54.7702 25.0032 54.7702Z" fill="black"/>
</svg>
