<svg width="46" height="45" viewBox="0 0 46 45" fill="none" xmlns="http://www.w3.org/2000/svg">
<rect x="0.00195312" width="45.0356" height="45" rx="22.5" fill="#2E3A59"/>
<g filter="url(#filter0_d_1182_7468)">
<path d="M27.3323 29.9959C27.204 29.9964 27.0774 29.9647 26.9632 29.9033L22.8712 27.6559L18.7793 29.9033C18.6464 29.9766 18.4966 30.0093 18.3469 29.9977C18.1971 29.9861 18.0535 29.9307 17.9323 29.8378C17.8111 29.7449 17.7172 29.6181 17.6613 29.472C17.6053 29.3258 17.5896 29.1661 17.6159 29.0111L18.4182 24.2723L15.1125 20.9054C15.0094 20.7975 14.9362 20.6621 14.9009 20.5138C14.8656 20.3655 14.8694 20.2099 14.912 20.0637C14.9585 19.9141 15.044 19.7812 15.1589 19.6801C15.2738 19.5789 15.4134 19.5135 15.5619 19.4914L20.1352 18.7928L22.1491 14.4748C22.2148 14.3325 22.3174 14.2125 22.4451 14.1285C22.5728 14.0445 22.7205 14 22.8712 14C23.022 14 23.1696 14.0445 23.2974 14.1285C23.4251 14.2125 23.5277 14.3325 23.5934 14.4748L25.6313 18.7843L30.2047 19.483C30.3532 19.5051 30.4928 19.5705 30.6077 19.6716C30.7225 19.7728 30.8081 19.9057 30.8546 20.0553C30.8972 20.2015 30.901 20.3571 30.8656 20.5054C30.8303 20.6537 30.7571 20.7891 30.654 20.897L27.3483 24.2639L28.1507 29.0027C28.1793 29.1605 28.1643 29.3236 28.1075 29.4727C28.0506 29.6219 27.9542 29.7508 27.8297 29.8444C27.6845 29.9512 27.5095 30.0045 27.3323 29.9959Z" fill="#FCEA2B"/>
</g>
<defs>
<filter id="filter0_d_1182_7468" x="10.877" y="14" width="24.0127" height="24" filterUnits="userSpaceOnUse" color-interpolation-filters="sRGB">
<feFlood flood-opacity="0" result="BackgroundImageFix"/>
<feColorMatrix in="SourceAlpha" type="matrix" values="0 0 0 0 0 0 0 0 0 0 0 0 0 0 0 0 0 0 127 0" result="hardAlpha"/>
<feOffset dy="4"/>
<feGaussianBlur stdDeviation="2"/>
<feComposite in2="hardAlpha" operator="out"/>
<feColorMatrix type="matrix" values="0 0 0 0 0 0 0 0 0 0 0 0 0 0 0 0 0 0 0.25 0"/>
<feBlend mode="normal" in2="BackgroundImageFix" result="effect1_dropShadow_1182_7468"/>
<feBlend mode="normal" in="SourceGraphic" in2="effect1_dropShadow_1182_7468" result="shape"/>
</filter>
</defs>
</svg>
