<svg width="19" height="19" viewBox="0 0 19 19" fill="none" xmlns="http://www.w3.org/2000/svg">
<path d="M10.7525 4.429C10.7525 4.59351 10.7201 4.75641 10.6572 4.9084C10.5942 5.06039 10.5019 5.19849 10.3856 5.31482C10.2693 5.43115 10.1312 5.52342 9.9792 5.58638C9.82722 5.64933 9.66431 5.68174 9.4998 5.68174C9.33529 5.68174 9.17239 5.64933 9.0204 5.58638C8.86841 5.52342 8.73031 5.43115 8.61399 5.31482C8.49766 5.19849 8.40538 5.06039 8.34243 4.9084C8.27947 4.75641 8.24707 4.59351 8.24707 4.429C8.24707 4.09676 8.37905 3.77812 8.61399 3.54319C8.84892 3.30825 9.16756 3.17627 9.4998 3.17627C9.83205 3.17627 10.1507 3.30825 10.3856 3.54319C10.6206 3.77812 10.7525 4.09676 10.7525 4.429ZM9.41114 6.9465C10.0236 6.9465 10.5195 7.4424 10.5195 8.05484V14.7618C10.5195 15.0558 10.4027 15.3377 10.1948 15.5455C9.98699 15.7534 9.70508 15.8702 9.41114 15.8702C9.11719 15.8702 8.83528 15.7534 8.62743 15.5455C8.41957 15.3377 8.3028 15.0558 8.3028 14.7618V8.05484C8.3028 7.4424 8.79934 6.9465 9.41114 6.9465Z" fill="white"/>
<path d="M3.16667 0C2.75081 0 2.33903 0.0819083 1.95484 0.241048C1.57064 0.400188 1.22155 0.633443 0.927495 0.927495C0.33363 1.52136 0 2.32681 0 3.16667V15.8333C0 16.6732 0.33363 17.4786 0.927495 18.0725C1.22155 18.3666 1.57064 18.5998 1.95484 18.759C2.33903 18.9181 2.75081 19 3.16667 19H15.8333C16.6732 19 17.4786 18.6664 18.0725 18.0725C18.6664 17.4786 19 16.6732 19 15.8333V3.16667C19 2.75081 18.9181 2.33903 18.759 1.95484C18.5998 1.57064 18.3666 1.22155 18.0725 0.927495C17.7785 0.633443 17.4294 0.400188 17.0452 0.241048C16.661 0.0819083 16.2492 0 15.8333 0H3.16667ZM1.26667 3.16667C1.26667 2.66276 1.46684 2.17948 1.82316 1.82316C2.17948 1.46684 2.66276 1.26667 3.16667 1.26667H15.8333C16.3372 1.26667 16.8205 1.46684 17.1768 1.82316C17.5332 2.17948 17.7333 2.66276 17.7333 3.16667V15.8333C17.7333 16.3372 17.5332 16.8205 17.1768 17.1768C16.8205 17.5332 16.3372 17.7333 15.8333 17.7333H3.16667C2.66276 17.7333 2.17948 17.5332 1.82316 17.1768C1.46684 16.8205 1.26667 16.3372 1.26667 15.8333V3.16667Z" fill="white"/>
</svg>
