<svg width="19" height="20" viewBox="0 0 19 20" fill="none" xmlns="http://www.w3.org/2000/svg">
<path d="M13.8462 0C12.1469 0 10.7692 1.37923 10.7692 3.07692C10.7692 5.12692 13.4615 7.92769 13.4615 10.7454H14.2308C14.2315 7.92769 16.9231 5.20769 16.9231 3.07692C16.9231 1.37923 15.5454 0 13.8462 0ZM13.8462 1.49077C14.0546 1.49087 14.2609 1.53202 14.4534 1.61186C14.6459 1.6917 14.8208 1.80868 14.9681 1.95611C15.1153 2.10354 15.2321 2.27854 15.3118 2.47111C15.3915 2.66369 15.4324 2.87006 15.4323 3.07846C15.4322 3.28686 15.3911 3.4932 15.3112 3.68569C15.2314 3.87819 15.1144 4.05307 14.967 4.20036C14.8195 4.34765 14.6445 4.46446 14.452 4.54411C14.2594 4.62377 14.053 4.66472 13.8446 4.66462C13.4236 4.66441 13.02 4.49698 12.7224 4.19916C12.4249 3.90134 12.2579 3.49752 12.2581 3.07654C12.2583 2.65556 12.4257 2.2519 12.7235 1.95437C13.0214 1.65683 13.4252 1.4898 13.8462 1.49V1.49077ZM9.23077 1.53846C4.14077 1.53846 0 5.67923 0 10.7692C0 15.8592 4.14077 20 9.23077 20C14.3208 20 18.4615 15.8592 18.4615 10.7692C18.4615 9.22308 18.0785 7.77231 17.4038 6.49C17.3015 6.69308 17.1985 6.88615 17.0915 7.09154C16.8892 7.48231 16.6762 7.87692 16.49 8.26923C16.6823 8.81923 16.8146 9.40077 16.8746 10H15.8654C15.81 10.2577 15.7692 10.5 15.7692 10.7454V11.5385H16.8754C16.771 12.6229 16.4347 13.6723 15.8892 14.6154H13.6308C13.8 13.8938 13.8977 13.0962 13.9669 12.2838H12.4515C12.3799 13.0709 12.2435 13.8507 12.0438 14.6154H6.41769C6.15772 13.6086 6.00457 12.5773 5.96077 11.5385H11.9223V10.7454C11.9164 10.4942 11.8841 10.2444 11.8262 10H5.96154C6.00534 8.96116 6.15849 7.92982 6.41846 6.92308H10.5292C10.2624 6.41923 10.0135 5.90609 9.78308 5.38462H6.94692C7.58308 3.93308 8.42385 3.07692 9.23077 3.07692C9.23077 2.54231 9.32692 2.04 9.49538 1.56231C9.40692 1.55923 9.32 1.53846 9.23077 1.53846ZM6.05769 3.77385C5.75135 4.28547 5.49381 4.82476 5.28846 5.38462H3.75C4.41353 4.71023 5.19587 4.16415 6.05769 3.77385ZM2.57231 6.92308H4.83077C4.59811 7.93358 4.46135 8.96379 4.42231 10H1.58615C1.69017 8.91546 2.02652 7.86603 2.57231 6.92308ZM1.58615 11.5385H4.42308C4.46846 12.6346 4.61 13.6692 4.83154 14.6154H2.57231C2.02718 13.6721 1.69088 12.6229 1.58615 11.5385ZM3.75 16.1538H5.28846C5.51 16.7508 5.76923 17.2869 6.05769 17.7646C5.19587 17.3743 4.41353 16.8282 3.75 16.1538ZM6.94692 16.1538H11.5146C10.8785 17.6054 10.0377 18.4615 9.23077 18.4615C8.42385 18.4615 7.58231 17.6054 6.94692 16.1538ZM13.1731 16.1538H14.7115C14.048 16.8282 13.2657 17.3743 12.4038 17.7646C12.6923 17.2877 12.9515 16.7515 13.1731 16.1538Z" fill="white"/>
</svg>
