<svg width="20" height="23" viewBox="0 0 20 23" fill="none" xmlns="http://www.w3.org/2000/svg">
<path d="M10 22.5024C4.443 21.2674 0 16.0244 0 10.5024V4.50244L10 0.502441L20 4.50244V10.5024C20 16.0264 15.557 21.2674 10 22.5024ZM2 5.50244V10.5024C2.05715 12.8146 2.87036 15.0443 4.31518 16.8503C5.75999 18.6563 7.75681 19.9391 10 20.5024C12.2432 19.9391 14.24 18.6563 15.6848 16.8503C17.1296 15.0443 17.9429 12.8146 18 10.5024V5.50244L10 2.50244L2 5.50244Z" fill="white"/>
<path d="M10 10.5024C11.3807 10.5024 12.5 9.38315 12.5 8.00244C12.5 6.62173 11.3807 5.50244 10 5.50244C8.61929 5.50244 7.5 6.62173 7.5 8.00244C7.5 9.38315 8.61929 10.5024 10 10.5024Z" fill="white"/>
<path d="M5 14.5024C5.49273 15.4008 6.21539 16.152 7.09398 16.6791C7.97256 17.2063 8.97548 17.4904 10 17.5024C11.0245 17.4904 12.0274 17.2063 12.906 16.6791C13.7846 16.152 14.5073 15.4008 15 14.5024C14.975 12.6064 11.658 11.5024 10 11.5024C8.333 11.5024 5.025 12.6064 5 14.5024Z" fill="white"/>
</svg>
