<svg width="24" height="24" viewBox="0 0 24 24" fill="none" xmlns="http://www.w3.org/2000/svg">
<path d="M11.915 2.91016C8.63395 2.91016 5.9675 5.60016 5.9675 8.91016V11.8002C5.9675 12.4102 5.70978 13.3402 5.4025 13.8602L4.26257 15.7702C3.55878 16.9502 4.04449 18.2602 5.33311 18.7002C9.60537 20.1402 14.2146 20.1402 18.4869 18.7002C19.6863 18.3002 20.2117 16.8702 19.5575 15.7702L18.4175 13.8602C18.1201 13.3402 17.8624 12.4102 17.8624 11.8002V8.91016C17.8624 5.61016 15.1861 2.91016 11.915 2.91016Z" stroke="#2E3A59" stroke-width="1.5" stroke-miterlimit="10" stroke-linecap="round"/>
<path d="M13.7487 3.20043C13.4414 3.11043 13.1242 3.04043 12.7971 3.00043C11.8455 2.88043 10.9335 2.95043 10.0811 3.20043C10.3685 2.46043 11.0822 1.94043 11.9149 1.94043C12.7475 1.94043 13.4612 2.46043 13.7487 3.20043Z" stroke="#2E3A59" stroke-width="1.5" stroke-miterlimit="10" stroke-linecap="round" stroke-linejoin="round"/>
<path d="M14.8889 19.0596C14.8889 20.7096 13.5507 22.0596 11.9151 22.0596C11.1023 22.0596 10.349 21.7196 9.8137 21.1796C9.27843 20.6396 8.94141 19.8796 8.94141 19.0596" stroke="#2E3A59" stroke-width="1.5" stroke-miterlimit="10"/>
</svg>
