<svg width="17" height="17" viewBox="0 0 17 17" fill="none" xmlns="http://www.w3.org/2000/svg">
<path fill-rule="evenodd" clip-rule="evenodd" d="M16.8907 2.80171C16.9756 2.92935 17.0134 3.0821 16.9978 3.23417C16.9822 3.38624 16.914 3.5283 16.8049 3.63638L8.58822 11.7724C8.50416 11.8556 8.39928 11.9152 8.28433 11.945L4.86198 12.8301C4.74885 12.8593 4.62998 12.8588 4.51715 12.8284C4.40432 12.7981 4.30147 12.739 4.2188 12.6572C4.13613 12.5753 4.07652 12.4735 4.04588 12.3617C4.01525 12.25 4.01465 12.1323 4.04416 12.0202L4.93795 8.632C4.96468 8.53053 5.01383 8.43621 5.08186 8.35584L13.3289 0.194143C13.4546 0.0698269 13.625 0 13.8026 0C13.9803 0 14.1506 0.0698269 14.2763 0.194143L16.8049 2.69726C16.8361 2.72987 16.8648 2.76479 16.8907 2.80171ZM15.3828 3.16638L13.8026 1.60237L6.18927 9.14183L5.63065 11.2599L7.7695 10.7067L15.3828 3.16638Z" fill="black"/>
<path d="M15.2692 13.1957C15.5135 11.128 15.5915 9.04439 15.5024 6.96447C15.5003 6.91545 15.5086 6.86653 15.5266 6.82082C15.5446 6.77511 15.572 6.7336 15.607 6.69893L16.4865 5.82797C16.5105 5.80404 16.541 5.78749 16.5744 5.78031C16.6077 5.77312 16.6423 5.77562 16.6743 5.78749C16.7062 5.79936 16.7339 5.82011 16.7542 5.84723C16.7745 5.87435 16.7864 5.9067 16.7886 5.94038C16.9537 8.41098 16.8909 10.8913 16.6009 13.3506C16.39 15.1403 14.9385 16.5432 13.1392 16.7424C10.0157 17.0847 6.86361 17.0847 3.7401 16.7424C1.94178 16.5432 0.489364 15.1403 0.278428 13.3506C-0.0915072 10.2132 -0.0915072 7.0438 0.278428 3.90638C0.489364 2.11666 1.94089 0.713745 3.7401 0.514593C6.11085 0.255295 8.4993 0.192233 10.8806 0.326062C10.9147 0.328486 10.9474 0.34053 10.9748 0.360769C11.0021 0.381009 11.0231 0.408595 11.0351 0.440261C11.0472 0.471927 11.0498 0.506347 11.0427 0.539443C11.0356 0.572539 11.019 0.602925 10.995 0.627004L10.1075 1.50504C10.0728 1.53943 10.0313 1.56637 9.98565 1.58418C9.93998 1.602 9.8911 1.61031 9.84204 1.6086C7.85491 1.5412 5.86547 1.61663 3.88936 1.83431C3.31192 1.8976 2.77288 2.15182 2.35932 2.5559C1.94577 2.95999 1.68184 3.49033 1.61018 4.06127C1.25164 7.09574 1.25164 10.1613 1.61018 13.1957C1.68184 13.7667 1.94577 14.297 2.35932 14.7011C2.77288 15.1052 3.31192 15.3594 3.88936 15.4227C6.88805 15.7546 9.9913 15.7546 12.9909 15.4227C13.5683 15.3594 14.1074 15.1052 14.5209 14.7011C14.9345 14.297 15.1975 13.7667 15.2692 13.1957Z" fill="black"/>
</svg>
