<svg width="11" height="11" viewBox="0 0 11 11" fill="none" xmlns="http://www.w3.org/2000/svg">
<path d="M7.21919 8.01187C6.32025 8.71054 5.18895 9.04014 4.05564 8.93357C2.92232 8.82699 1.87222 8.29226 1.11914 7.43823C0.366061 6.58421 -0.0333678 5.47512 0.00218499 4.33679C0.0377378 3.19846 0.505598 2.11648 1.3105 1.31117C2.11541 0.505855 3.19683 0.037757 4.33458 0.0021861C5.47233 -0.0333848 6.58086 0.366247 7.43445 1.11971C8.28804 1.87317 8.82251 2.92381 8.92903 4.0577C9.03555 5.19159 8.70611 6.32347 8.00779 7.22286L11 10.2054L10.2058 11L7.22479 8.01187H7.21919ZM4.47867 7.8328C4.91935 7.8328 5.35572 7.74596 5.76285 7.57723C6.16999 7.4085 6.53993 7.1612 6.85154 6.84943C7.16315 6.53766 7.41033 6.16754 7.57897 5.76019C7.74761 5.35285 7.83441 4.91626 7.83441 4.47535C7.83441 4.03444 7.74761 3.59785 7.57897 3.19051C7.41033 2.78316 7.16315 2.41304 6.85154 2.10127C6.53993 1.7895 6.16999 1.54219 5.76285 1.37347C5.35572 1.20474 4.91935 1.11789 4.47867 1.11789C3.58867 1.11789 2.73512 1.47163 2.10579 2.10127C1.47647 2.73091 1.12292 3.5849 1.12292 4.47535C1.12292 5.3658 1.47647 6.21978 2.10579 6.84943C2.73512 7.47907 3.58867 7.8328 4.47867 7.8328Z" fill="#9DA3BB"/>
</svg>
