<svg width="22" height="19" viewBox="0 0 22 19" fill="none" xmlns="http://www.w3.org/2000/svg">
<path d="M21.0008 9.9996C21.0008 9.5086 20.9958 8.5166 20.9848 8.0236C20.9198 4.9586 20.8868 3.4256 19.7558 2.2906C18.6248 1.1546 17.0508 1.1156 13.9018 1.0366C11.9681 0.987801 10.0335 0.987801 8.09979 1.0366C4.95079 1.1156 3.37679 1.1546 2.24579 2.2906C1.11479 3.4256 1.08179 4.9586 1.01579 8.0236C0.994737 9.00748 0.994737 9.99171 1.01579 10.9756C1.08179 14.0406 1.11479 15.5736 2.24579 16.7086C3.37679 17.8446 4.95079 17.8836 8.09979 17.9626C8.90246 17.9826 9.70279 17.9946 10.5008 17.9986" stroke="black" stroke-width="1.5" stroke-linecap="round" stroke-linejoin="round"/>
<path d="M1.00098 3.49951L7.91398 7.42451C10.44 8.85751 11.562 8.85751 14.088 7.42451L21.001 3.49951M21.001 14.9995H13.001M21.001 14.9995C21.001 14.2995 19.007 12.9915 18.501 12.4995M21.001 14.9995C21.001 15.6995 19.007 17.0085 18.501 17.4995" stroke="black" stroke-width="1.5" stroke-linecap="round" stroke-linejoin="round"/>
</svg>
