<svg width="46" height="45" viewBox="0 0 46 45" fill="#979DAC" xmlns="http://www.w3.org/2000/svg">
<rect x="0.0224609" width="45.3462" height="45" rx="22.5" fill="#2E3A59"/>
<g filter="url(#filter0_d_1090_9761)">
<path d="M30.2532 16.5523C30.2532 16.4058 30.1946 16.2653 30.0902 16.1618C29.9858 16.0582 29.8443 16 29.6966 16C29.549 16 29.4075 16.0582 29.3031 16.1618C29.1987 16.2653 29.1401 16.4058 29.1401 16.5523V19.0561C28.2837 18.034 27.1736 17.1687 25.78 16.7401C24.0245 16.1958 22.1365 16.2455 20.4126 16.8815C18.6939 17.5163 17.0703 18.8035 16.2228 20.3374C16.1849 20.4012 16.1603 20.4719 16.1504 20.5453C16.1405 20.6186 16.1456 20.6933 16.1654 20.7647C16.1852 20.836 16.2192 20.9028 16.2655 20.9608C16.3118 21.0189 16.3693 21.0672 16.4348 21.1027C16.5002 21.1383 16.5722 21.1604 16.6464 21.1678C16.7207 21.1752 16.7956 21.1677 16.8669 21.1458C16.9382 21.1239 17.0043 21.088 17.0613 21.0402C17.1182 20.9924 17.165 20.9337 17.1987 20.8677C17.8992 19.5996 19.295 18.4729 20.8007 17.9169C22.2942 17.366 23.9298 17.3232 25.4505 17.7954C26.7135 18.1834 27.7294 19.0207 28.5153 20.0502H25.6152C25.4676 20.0502 25.3261 20.1084 25.2217 20.212C25.1173 20.3156 25.0587 20.4561 25.0587 20.6025C25.0587 20.749 25.1173 20.8895 25.2217 20.9931C25.3261 21.0967 25.4676 21.1549 25.6152 21.1549H29.6966C29.8443 21.1549 29.9858 21.0967 30.0902 20.9931C30.1946 20.8895 30.2532 20.749 30.2532 20.6025V16.5523ZM20.2352 24.1005C20.1368 24.1005 20.0424 24.1393 19.9729 24.2083C19.9033 24.2774 19.8642 24.371 19.8642 24.4687V27.4143C19.8642 27.512 19.9033 27.6056 19.9729 27.6747C20.0424 27.7437 20.1368 27.7825 20.2352 27.7825H26.1718C26.2702 27.7825 26.3646 27.7437 26.4342 27.6747C26.5037 27.6056 26.5428 27.512 26.5428 27.4143V24.4687C26.5428 24.371 26.5037 24.2774 26.4342 24.2083C26.3646 24.1393 26.2702 24.1005 26.1718 24.1005H20.2352ZM18.7511 24.4687C18.7511 24.0781 18.9074 23.7035 19.1858 23.4273C19.4641 23.151 19.8416 22.9959 20.2352 22.9959H26.1718C26.5654 22.9959 26.9429 23.151 27.2213 23.4273C27.4996 23.7035 27.6559 24.0781 27.6559 24.4687V27.4143C27.6559 27.8049 27.4996 28.1796 27.2213 28.4558C26.9429 28.732 26.5654 28.8871 26.1718 28.8871H20.2352C19.8416 28.8871 19.4641 28.732 19.1858 28.4558C18.9074 28.1796 18.7511 27.8049 18.7511 27.4143V24.4687Z" fill="#60D14E"/>
</g>
<defs>
<filter id="filter0_d_1090_9761" x="12.1455" y="16" width="22.1074" height="20.8867" filterUnits="userSpaceOnUse" color-interpolation-filters="sRGB">
<feFlood flood-opacity="0" result="BackgroundImageFix"/>
<feColorMatrix in="SourceAlpha" type="matrix" values="0 0 0 0 0 0 0 0 0 0 0 0 0 0 0 0 0 0 127 0" result="hardAlpha"/>
<feOffset dy="4"/>
<feGaussianBlur stdDeviation="2"/>
<feComposite in2="hardAlpha" operator="out"/>
<feColorMatrix type="matrix" values="0 0 0 0 0 0 0 0 0 0 0 0 0 0 0 0 0 0 0.25 0"/>
<feBlend mode="normal" in2="BackgroundImageFix" result="effect1_dropShadow_1090_9761"/>
<feBlend mode="normal" in="SourceGraphic" in2="effect1_dropShadow_1090_9761" result="shape"/>
</filter>
</defs>
</svg>
